<?xml version="1.0" standalone="no"?>
<!DOCTYPE svg PUBLIC "-//W3C//DTD SVG 20010904//EN"
 "http://www.w3.org/TR/2001/REC-SVG-20010904/DTD/svg10.dtd">
<svg version="1.0" xmlns="http://www.w3.org/2000/svg"
 width="512.000000pt" height="512.000000pt" viewBox="0 0 512.000000 512.000000"
 preserveAspectRatio="xMidYMid meet">

<g transform="translate(0.000000,512.000000) scale(0.100000,-0.100000)"
fill="#000000" stroke="none">
<path d="M2500 4840 c-68 -12 -83 -19 -555 -285 -487 -274 -811 -456 -1105
-621 -262 -146 -323 -209 -351 -359 -6 -32 -8 -436 -7 -1052 l3 -999 37 -76
c23 -44 55 -91 80 -114 50 -46 -9 -12 1178 -679 129 -73 309 -174 400 -225
259 -146 280 -155 380 -155 100 0 118 8 375 152 390 218 1406 790 1469 826
101 58 151 108 194 195 l37 76 0 1025 c0 1147 4 1081 -71 1184 -53 73 -33 60
-649 406 -115 65 -320 180 -455 256 -645 363 -744 417 -778 429 -52 18 -129
25 -182 16z m529 -736 c817 -459 866 -487 879 -499 11 -10 9 -15 -10 -27 -34
-22 -1278 -728 -1304 -740 -18 -9 -80 23 -425 215 -759 423 -904 504 -938 525
l-33 20 23 15 c23 14 105 60 669 377 140 79 345 194 455 257 110 62 206 113
214 113 8 0 220 -115 470 -256z m-1569 -1189 c317 -177 790 -440 842 -469 l38
-21 0 -421 c0 -505 -11 -1114 -20 -1114 -7 0 -226 122 -899 500 l-471 265 0
772 0 772 123 -68 c67 -37 241 -134 387 -216z m2710 -492 l0 -768 -88 -49
c-193 -108 -416 -234 -797 -448 -220 -124 -419 -235 -442 -247 l-43 -21 1 537
c1 296 4 641 8 767 l6 230 50 29 c28 16 169 97 315 180 146 83 360 204 475
270 265 151 508 287 512 287 2 0 3 -345 3 -767z"/>
</g>
</svg>
