<?xml version="1.0" encoding="UTF-8" standalone="no"?>
<!-- Created with Inkscape (http://www.inkscape.org/) -->

<svg
   width="70.268425mm"
   height="69.999924mm"
   viewBox="0 0 70.268425 69.999924"
   version="1.1"
   id="svg5"
   xml:space="preserve"
   inkscape:export-filename="../deving/favicon/favicon-32x32.png"
   inkscape:export-xdpi="10.343434"
   inkscape:export-ydpi="10.343434"
   inkscape:version="1.2.2 (b0a8486541, 2022-12-01)"
   sodipodi:docname="drawing.svg"
   xmlns:inkscape="http://www.inkscape.org/namespaces/inkscape"
   xmlns:sodipodi="http://sodipodi.sourceforge.net/DTD/sodipodi-0.dtd"
   xmlns="http://www.w3.org/2000/svg"
   xmlns:svg="http://www.w3.org/2000/svg"><sodipodi:namedview
     id="namedview7"
     pagecolor="#ffffff"
     bordercolor="#000000"
     borderopacity="0.25"
     inkscape:showpageshadow="2"
     inkscape:pageopacity="0.0"
     inkscape:pagecheckerboard="0"
     inkscape:deskcolor="#d1d1d1"
     inkscape:document-units="mm"
     showgrid="false"
     inkscape:zoom="1"
     inkscape:cx="-511"
     inkscape:cy="105"
     inkscape:window-width="3390"
     inkscape:window-height="1406"
     inkscape:window-x="22"
     inkscape:window-y="26"
     inkscape:window-maximized="1"
     inkscape:current-layer="layer1" /><defs
     id="defs2"><clipPath
       clipPathUnits="userSpaceOnUse"
       id="clipPath3093-2-9"><rect
         style="fill:#111111;fill-opacity:1;stroke:#111111;stroke-width:0.0611399;stroke-dasharray:none;stroke-dashoffset:0;stroke-opacity:1"
         id="rect3095-0-3"
         width="13.781306"
         height="18.723499"
         x="-195.61414"
         y="-161.93062" /></clipPath><clipPath
       clipPathUnits="userSpaceOnUse"
       id="clipPath3105-2-1"><rect
         style="fill:#111111;fill-opacity:1;stroke:#111111;stroke-width:0.0649999;stroke-dasharray:none;stroke-dashoffset:0;stroke-opacity:1"
         id="rect3107-3-9"
         width="15.100034"
         height="20.848307"
         x="-68.761894"
         y="-155.5742" /></clipPath><clipPath
       clipPathUnits="userSpaceOnUse"
       id="clipPath3105-8-9-4"><rect
         style="fill:#111111;fill-opacity:1;stroke:#111111;stroke-width:0.0649999;stroke-dasharray:none;stroke-dashoffset:0;stroke-opacity:1"
         id="rect3107-7-2-7"
         width="15.100034"
         height="20.848307"
         x="-68.761894"
         y="-155.5742" /></clipPath><clipPath
       clipPathUnits="userSpaceOnUse"
       id="clipPath3922"><rect
         style="fill:#111111;fill-opacity:1;stroke:#111111;stroke-width:0.0649999;stroke-dasharray:none;stroke-dashoffset:0;stroke-opacity:1"
         id="rect3924"
         width="25.426006"
         height="24.537741"
         x="-215.1546"
         y="-13.122184" /></clipPath></defs><g
     inkscape:label="Layer 1"
     inkscape:groupmode="layer"
     id="layer1"
     transform="translate(-92.171458,-147.60374)"><g
       id="g3938"
       transform="translate(217.264,165.67038)"
       inkscape:export-filename="../deving/favicon/favicon-16x16.png"
       inkscape:export-xdpi="5.8057203"
       inkscape:export-ydpi="5.8057203"><path
         style="fill:#333333;stroke-width:0.739938"
         d="M -78.153594,-10.680382 -91.472485,1.1586329 v 6.6594459 l 1.479876,0.7399384 1.479877,-5.179569 10.359138,-8.8792612 z m 20.718276,9.6191996 -14.05883,11.8390144 v 5.919508 l 5.179569,2.219815 -14.05883,13.318892 V 51.474446 L -64.094763,33.715924 -65.57464,25.576601 -55.215502,15.217463 Z M -87.772793,9.2979556 -102.57156,21.876909 v 14.798769 l 4.439629,-12.578954 10.359138,-8.879261 z"
         id="path1051-6" /><path
         style="fill:#999999;stroke-width:0.739938"
         d="m -91.472485,1.1586329 -16.278645,-7.3993843 14.798768,-11.3950516 14.798768,6.955421 m 6.659446,21.458214 -17.018584,-7.3993838 14.058831,-11.8390149 17.018583,7.3993843 m -22.938091,33.2972294 -17.758522,-8.139323 14.798768,-12.578953 17.018584,7.399384 m -36.256981,2.959754 -16.27865,-7.399384 14.05883,-12.5789537 17.018587,7.3993843"
         id="path1053-7" /><path
         style="fill:#cccccc;stroke-width:0.739938"
         d="m -89.992609,8.5580172 1.479877,-5.179569 17.018584,7.3993838 v 5.919508 l -11.839015,-5.179569 -4.43963,3.699692 V 9.2979556 Z m -23.678031,0.7399384 5.91951,-15.538707 16.278645,7.3993843 V 7.8180788 L -104.79138,1.8985713 Z m -10.95109,19.2383994 5.77152,-14.05883 16.27865,7.399384 v 14.798769 l 4.439629,-12.578954 17.758522,8.139323 v 19.238399 z"
         id="path1055-5" /><path
         style="fill:none;stroke:#111111;stroke-width:1.47988"
         d="m -66.632989,-123.462 c -1.47987,-2.21981 -4.43963,-2.21981 -5.17956,-0.73993 -0.73994,1.47987 3.69969,2.95975 1.47987,5.17956 -0.73994,0.73994 -4.43963,0 -5.17957,-2.21981 m 15.519219,-24.42514 v 2.96693 3.69969 l 5.939,-3.69969 m -25.89785,-8.13933 0.73994,2.95976 m 2.21982,-5.91951 c -1.47988,-1.47988 -4.43963,-1.47988 -6.65945,0.73994 -1.47988,1.47988 0,3.69969 2.95975,3.69969 2.21982,0 5.17957,-2.21981 3.6997,-4.43963 z m -17.01858,21.45821 4.43963,2.21982 m -8.13933,-0.73994 8.87927,-2.95975 -2.21982,6.65944"
         id="path1057-3-2-1-97-0"
         clip-path="url(#clipPath3105-2-1)"
         transform="rotate(13.58549,-747.19268,-164.01698)"
         sodipodi:nodetypes="cssccccccccsscccccc" /><path
         style="fill:none;stroke:#111111;stroke-width:1.47988"
         d="m -164.32916,-148.6336 c -1.47987,-2.21981 -4.43963,-2.21981 -5.17956,-0.73994 -0.73994,1.47988 3.69969,2.95976 1.47987,5.17957 -0.73994,0.73994 -4.43963,0 -5.17957,-2.21981 m 14.05883,-25.89785 -2.95975,5.17957 4.43963,-0.73994 v 3.69969 l 5.91951,-3.69969 m -25.89785,-8.13932 0.73994,2.95975 m 2.21982,-5.91951 c -1.47988,-1.47988 -4.43963,-1.47988 -6.65945,0.73994 -1.47988,1.47988 0,3.6997 2.95975,3.6997 2.21982,0 5.17957,-2.21982 3.6997,-4.43964 z m -17.01858,21.45822 4.43963,2.21981 m -8.13933,-0.73994 8.87927,-2.95975 -2.21982,6.65945"
         id="path1057-3-2-6-8-5"
         clip-path="url(#clipPath3093-2-9)"
         transform="translate(115.73766,156.23295)" /><path
         style="fill:none;stroke:#111111;stroke-width:1.47988"
         d="m -201.70277,-2.15054 c -1.47988,-2.219815 -4.43963,-2.219815 -5.17957,-0.739939 -0.73994,1.479877 3.69969,2.959754 1.47988,5.179569 -0.73994,0.739939 -4.43963,0 -5.17957,-2.219815 m 14.05883,-25.897845 -2.95976,5.179569 4.43963,-0.739938 v 3.699692 l 5.91951,-3.699692 m -25.89784,-8.139323 0.73994,2.959754 m 2.21981,-5.919508 c -1.47988,-1.479877 -4.43963,-1.479877 -6.65945,0.739939 -1.47987,1.479876 0,3.699692 2.95976,3.699692 2.21981,0 5.17957,-2.219816 3.69969,-4.439631 z m -17.01858,21.458215 4.43963,2.219815 m -8.13933,-0.739939 8.87927,-2.959753 -2.21982,6.659446"
         id="path1057-3-2-4-7"
         clip-path="url(#clipPath3922)"
         transform="translate(101.36874,10.466376)" /><path
         style="fill:none;stroke:#222222;stroke-width:0.739938"
         d="m -113.67064,9.2979556 5.91951,-15.538707 14.798768,-11.3950516 14.798768,6.955421 v 5.179569 m -25.157906,45.136244 5.179569,-15.538707 14.798768,-12.578953 17.018584,7.399384 2.219816,14.798769 -16.278646,17.758522 -44.248321,-22.938091 5.77152,-14.05883 14.05883,-12.5789537 17.018587,7.3993843 v 5.9195074 m -2.219816,-6.6594458 1.479877,-5.179569 14.058831,-11.8390149 17.018583,7.3993843 2.219816,16.2786454 -10.359138,10.359138"
         id="path1059-5" /><path
         style="fill:none;stroke:#111111;stroke-width:1.47988"
         d="m -66.632989,-123.462 c -1.47987,-2.21981 -4.43963,-2.21981 -5.17956,-0.73993 -0.73994,1.47987 3.69969,2.95975 1.47987,5.17956 -0.73994,0.73994 -4.43963,0 -5.17957,-2.21981 m 14.05883,-25.89785 -2.95975,5.17957 4.43963,-0.73993 v 3.69969 l 5.91951,-3.69969 m -25.89785,-8.13933 0.73994,2.95976 m 2.21982,-5.91951 c -1.47988,-1.47988 -4.43963,-1.47988 -6.65945,0.73994 -1.47988,1.47988 0,3.69969 2.95975,3.69969 2.21982,0 5.17957,-2.21981 3.6997,-4.43963 z m -17.01858,21.45821 4.43963,2.21982 m -8.13933,-0.73994 8.87927,-2.95975 -2.21982,6.65944"
         id="path1057-3-2-1-9-3-3"
         clip-path="url(#clipPath3105-8-9-4)"
         transform="rotate(180,-76.17532,-76.128066)" /></g></g></svg>
