<?xml version="1.0" standalone="no"?>
<!DOCTYPE svg PUBLIC "-//W3C//DTD SVG 20010904//EN"
 "http://www.w3.org/TR/2001/REC-SVG-20010904/DTD/svg10.dtd">
<svg version="1.0" xmlns="http://www.w3.org/2000/svg"
 width="700.000000pt" height="700.000000pt" viewBox="0 0 700.000000 700.000000"
 preserveAspectRatio="xMidYMid meet">
<metadata>
Created by potrace 1.14, written by Peter Selinger 2001-2017
</metadata>
<g transform="translate(0.000000,700.000000) scale(0.100000,-0.100000)"
fill="#000000" stroke="none">
<path d="M876 6989 c-409 -60 -744 -366 -848 -775 l-23 -89 0 -2670 c0 -2517
1 -2674 18 -2739 47 -184 136 -335 270 -462 121 -114 249 -185 418 -231 60
-16 231 -18 2749 -20 2946 -4 2766 -7 2938 56 306 112 530 381 587 708 13 75
15 425 15 2733 0 2907 4 2727 -60 2902 -111 304 -380 526 -707 583 -75 13
-424 15 -2692 14 -1433 -1 -2633 -5 -2665 -10z m4193 -2106 l0 -348 -964
-1005 c-531 -553 -965 -1008 -965 -1012 0 -5 450 -8 1000 -8 l1000 0 0 -370 0
-370 -1640 0 -1640 0 0 360 0 361 956 997 956 997 -861 3 -861 2 0 370 0 370
1510 0 1510 0 -1 -347z"/>
</g>
</svg>
