<?xml version="1.0" standalone="no"?>
<!DOCTYPE svg PUBLIC "-//W3C//DTD SVG 20010904//EN"
 "http://www.w3.org/TR/2001/REC-SVG-20010904/DTD/svg10.dtd">
<svg version="1.0" xmlns="http://www.w3.org/2000/svg"
 width="512.000000pt" height="512.000000pt" viewBox="0 0 512.000000 512.000000"
 preserveAspectRatio="xMidYMid meet">
<metadata>
Created by potrace 1.14, written by Peter Selinger 2001-2017
</metadata>
<g transform="translate(0.000000,512.000000) scale(0.100000,-0.100000)"
fill="#000000" stroke="none">
<path d="M2469 4924 c-31 -7 -72 -21 -90 -32 -19 -10 -101 -56 -184 -102 -82
-45 -170 -95 -195 -110 -25 -15 -74 -44 -110 -63 -36 -19 -117 -64 -180 -100
-63 -35 -200 -112 -305 -171 -104 -59 -201 -113 -215 -121 -14 -8 -160 -90
-324 -182 -316 -177 -373 -219 -418 -307 -48 -94 -48 -76 -48 -1177 0 -1001 0
-1039 19 -1099 24 -75 76 -155 131 -198 21 -18 41 -32 43 -32 3 0 60 -31 128
-70 67 -38 124 -70 126 -70 2 0 20 -11 41 -23 20 -13 66 -40 102 -59 36 -20
97 -53 135 -75 39 -22 90 -51 115 -65 25 -14 149 -84 275 -155 127 -71 250
-141 275 -155 25 -14 99 -56 165 -93 66 -37 143 -80 170 -95 28 -15 97 -54
155 -87 133 -75 180 -93 249 -99 88 -7 176 20 296 89 22 13 67 38 100 57 33
18 74 41 90 50 17 9 138 78 270 152 132 74 263 147 290 163 28 15 75 42 106
59 550 307 879 497 914 532 55 53 91 115 110 191 14 54 15 184 13 1114 l-3
1054 -31 66 c-57 120 -77 134 -664 464 -293 165 -560 315 -594 334 -34 19
-205 115 -380 214 -176 98 -338 185 -359 193 -57 20 -153 24 -218 8z m143
-509 c20 -14 39 -25 42 -25 3 0 44 -22 92 -50 48 -27 88 -50 90 -50 1 0 44
-24 96 -54 51 -29 113 -64 138 -78 25 -14 68 -38 95 -53 28 -15 117 -66 198
-112 199 -113 215 -122 430 -242 103 -57 187 -108 187 -113 0 -5 -8 -12 -17
-16 -10 -4 -49 -26 -88 -48 -38 -23 -207 -120 -375 -215 -168 -95 -434 -246
-591 -335 -158 -90 -298 -168 -312 -175 -23 -10 -51 4 -333 161 -170 95 -331
185 -359 200 -27 15 -185 103 -350 195 -165 93 -326 182 -357 199 -32 17 -58
33 -58 36 0 5 174 104 499 286 31 17 126 70 211 119 85 48 229 129 320 180
227 127 247 138 315 178 33 19 67 36 75 36 9 1 32 -10 52 -24z m-1584 -1267
c57 -32 105 -58 107 -58 2 0 41 -22 87 -48 46 -27 115 -65 153 -86 226 -124
614 -341 637 -357 15 -11 30 -19 33 -19 11 0 279 -153 286 -162 3 -5 4 -183 2
-396 -5 -609 -11 -1207 -12 -1209 -1 -1 -44 22 -97 52 -53 30 -97 55 -99 55
-1 0 -68 38 -150 85 -81 47 -149 85 -151 85 -2 0 -61 33 -131 73 -71 41 -155
89 -188 107 -33 18 -109 61 -170 95 -141 80 -173 98 -270 152 -44 24 -102 57
-130 73 l-50 28 -3 807 -2 806 22 -12 c13 -7 69 -38 126 -71z m3205 -1529 c-8
-8 -203 -119 -209 -119 -2 0 -25 -13 -52 -29 -26 -15 -68 -39 -93 -53 -36 -21
-271 -153 -409 -231 -19 -11 -75 -42 -125 -70 -49 -27 -119 -66 -155 -87 -36
-20 -85 -49 -110 -62 -25 -14 -94 -53 -154 -87 -60 -33 -112 -61 -115 -61 -4
0 -6 168 -4 373 8 1020 10 1228 14 1231 2 1 18 10 34 18 17 8 89 49 161 90 71
41 137 78 145 81 8 4 37 21 64 37 28 17 92 54 143 83 51 28 101 57 110 62 10
6 49 28 87 49 39 22 84 47 100 56 366 208 488 277 525 300 l45 27 3 -801 c1
-440 -1 -803 -5 -807z"/>
</g>
</svg>
